<svg xmlns="http://www.w3.org/2000/svg" width="23.429" height="23.429" viewBox="0 0 23.429 23.429"><path d="M11.714,2.112c3.128,0,3.5.012,4.735.068,3.175.144,4.657,1.651,4.8,4.8.057,1.235.067,1.606.067,4.734s-.012,3.5-.067,4.734c-.145,3.148-1.624,4.657-4.8,4.8-1.236.057-1.6.068-4.735.068s-3.5-.012-4.734-.068c-3.182-.145-4.657-1.659-4.8-4.8-.057-1.235-.068-1.6-.068-4.734s.013-3.5.068-4.734c.145-3.15,1.624-4.657,4.8-4.8,1.236-.056,1.606-.067,4.734-.067Zm0-2.112C8.533,0,8.135.014,6.885.07,2.631.266.267,2.626.071,6.884.014,8.135,0,8.533,0,11.714s.014,3.581.07,4.83c.2,4.254,2.556,6.619,6.814,6.814,1.251.057,1.649.07,4.83.07s3.581-.014,4.83-.07c4.25-.2,6.621-2.556,6.813-6.814.058-1.25.071-1.649.071-4.83s-.014-3.58-.07-4.829C23.167,2.635,20.8.267,16.546.071,15.3.014,14.9,0,11.714,0Zm0,5.7a6.016,6.016,0,1,0,6.015,6.015A6.016,6.016,0,0,0,11.714,5.7Zm0,9.92a3.9,3.9,0,1,1,3.9-3.9A3.9,3.9,0,0,1,11.714,15.619ZM17.968,4.056a1.406,1.406,0,1,0,1.4,1.406A1.406,1.406,0,0,0,17.968,4.056Z" fill="#000e13"/></svg>