<svg xmlns="http://www.w3.org/2000/svg" width="27.872" height="19.296" viewBox="0 0 27.872 19.296"><path d="M29.8,13a1.072,1.072,0,0,0-1.072,1.072v8.576a1.072,1.072,0,0,1-1.072,1.072H6.216a1.072,1.072,0,0,1-1.072-1.072V14.072a1.072,1.072,0,1,0-2.144,0v8.576a3.221,3.221,0,0,0,3.216,3.216h21.44a3.221,3.221,0,0,0,3.216-3.216V14.072A1.072,1.072,0,0,0,29.8,13Z" transform="translate(-3 -6.568)" fill="#000e13"/><path d="M16.279,19.65a1.072,1.072,0,0,0,1.286,0l12.66-9.5a1.072,1.072,0,0,0,.322-1.319,3.28,3.28,0,0,0-.632-.89A3.216,3.216,0,0,0,27.642,7H6.2a3.216,3.216,0,0,0-2.273.943,3.28,3.28,0,0,0-.632.89,1.072,1.072,0,0,0,.322,1.319ZM6.2,9.144h21.44a.965.965,0,0,1,.3,0l-11.02,8.308L5.9,9.144A.965.965,0,0,1,6.2,9.144Z" transform="translate(-2.986 -7)" fill="#000e13"/></svg>