<svg xmlns="http://www.w3.org/2000/svg" width="21.517" height="17.718" viewBox="0 0 21.517 17.718"><g transform="translate(0 -0.5)"><path d="M17.1.5H4.413A4.418,4.418,0,0,0,0,4.913v6.815A4.341,4.341,0,0,0,3.122,15.9l2.131,2.131a.63.63,0,0,0,.892,0L8.1,16.078h9a4.418,4.418,0,0,0,4.413-4.413V4.912A4.418,4.418,0,0,0,17.1.5Zm3.152,11.165A3.155,3.155,0,0,1,17.1,14.817H7.839A.63.63,0,0,0,7.393,15L5.7,16.7l-1.8-1.8a.63.63,0,0,0-.294-.166,3.083,3.083,0,0,1-2.34-3V4.913A3.155,3.155,0,0,1,4.413,1.761H17.1a3.155,3.155,0,0,1,3.152,3.152Zm0,0" transform="translate(0 0)" fill="#f1f1f1"/><path d="M154.394,144.328h-8.005a.63.63,0,0,0,0,1.261h8.005a.63.63,0,1,0,0-1.261Zm0,0" transform="translate(-139.632 -137.784)" fill="#f1f1f1"/><path d="M154.394,197.352h-8.005a.63.63,0,0,0,0,1.261h8.005a.63.63,0,1,0,0-1.261Zm0,0" transform="translate(-139.632 -188.579)" fill="#f1f1f1"/></g></svg>