<svg xmlns="http://www.w3.org/2000/svg" width="24.866" height="20.208" viewBox="0 0 24.866 20.208"><path d="M24.866,4.64a10.185,10.185,0,0,1-2.93.8,5.11,5.11,0,0,0,2.243-2.822,10.22,10.22,0,0,1-3.24,1.238,5.1,5.1,0,0,0-8.694,4.652A14.483,14.483,0,0,1,1.731,3.182,5.108,5.108,0,0,0,3.309,9.993,5.08,5.08,0,0,1,1,9.355a5.105,5.105,0,0,0,4.092,5.067,5.113,5.113,0,0,1-2.3.087,5.105,5.105,0,0,0,4.766,3.542A10.258,10.258,0,0,1,0,20.164a14.442,14.442,0,0,0,7.82,2.292,14.428,14.428,0,0,0,14.5-15.175A10.387,10.387,0,0,0,24.866,4.64Z" transform="translate(0 -2.248)" fill="#000e13"/></svg>